<svg width="32" height="22" viewBox="0 0 32 22" fill="none" xmlns="http://www.w3.org/2000/svg">
<path d="M31.3332 3.676C31.152 3.02964 30.799 2.44446 30.3118 1.98267C29.8109 1.50667 29.1969 1.16618 28.5278 0.993333C26.0238 0.333333 15.9918 0.333333 15.9918 0.333333C11.8096 0.28575 7.62842 0.495032 3.47185 0.959999C2.80277 1.14562 2.18993 1.49372 1.68785 1.97333C1.19451 2.448 0.83718 3.03333 0.650513 3.67467C0.202104 6.09032 -0.0157643 8.54313 -0.000153652 11C-0.0161537 13.4547 0.20118 15.9067 0.650513 18.3253C0.83318 18.964 1.18918 19.5467 1.68385 20.0173C2.17851 20.488 2.79451 20.828 3.47185 21.008C6.00918 21.6667 15.9918 21.6667 15.9918 21.6667C20.1794 21.7143 24.3659 21.505 28.5278 21.04C29.1969 20.8672 29.8109 20.5267 30.3118 20.0507C30.7989 19.589 31.1514 19.0037 31.3318 18.3573C31.792 15.9426 32.0157 13.4888 31.9998 11.0307C32.0345 8.56214 31.811 6.09675 31.3332 3.67467V3.676ZM12.8025 15.5653V6.436L21.1492 11.0013L12.8025 15.5653Z" fill="#D4D3FB"/>
</svg>
