<svg width="80" height="80" viewBox="0 0 80 80" fill="none" xmlns="http://www.w3.org/2000/svg">
<path fill-rule="evenodd" clip-rule="evenodd" d="M75.7429 25.1759C60.7279 53.0958 30.7341 64.4468 2.87628 48.7286C1.94889 48.2052 0.772852 48.5324 0.249455 49.4483C-0.273941 50.3806 0.0532166 51.5583 0.98061 52.0816C30.8404 68.9448 63.044 56.9231 79.1384 27.0078C79.6422 26.0754 79.2905 24.8976 78.3533 24.3906C77.4161 23.8999 76.2467 24.2436 75.7429 25.1759Z" fill="#F5FA93"/>
<path d="M26.3194 36.7542C29.4209 36.7542 31.9353 34.2399 31.9353 31.1384C31.9353 28.0368 29.4209 25.5225 26.3194 25.5225C23.2178 25.5225 20.7035 28.0368 20.7035 31.1384C20.7035 34.2399 23.2178 36.7542 26.3194 36.7542Z" fill="#F5FA93"/>
<path d="M49.5684 30.7803C52.6094 30.7803 55.0746 28.3152 55.0746 25.2742C55.0746 22.2332 52.6094 19.7681 49.5684 19.7681C46.5274 19.7681 44.0623 22.2332 44.0623 25.2742C44.0623 28.3152 46.5274 30.7803 49.5684 30.7803Z" fill="#F5FA93"/>
</svg>
